<svg width="50.00000000000001" height="49" xmlns="http://www.w3.org/2000/svg" fill="none">
 <g>
  <title>Layer 1</title>
  <ellipse cx="24" cy="24.5" rx="24" ry="24.5" fill="white" id="svg_1"/>
  <path id="svg_1" fill="#D41443" d="m18.5144,0.87746c-11.57151,3.50402 -18.5144,12.61444 -18.5144,24.12764c0,9.4108 4.82984,17.6202 12.779,21.7249c4.1254,2.1024 4.7292,0.6007 0.9055,-2.3027c-2.7167,-2.2025 -3.2198,-3.2036 -3.2198,-6.9079c0,-2.603 -0.60378,-4.7054 -1.50937,-5.5063c-1.81119,-1.5017 -2.01244,-5.4062 -0.20125,-6.8078c0.70436,-0.6007 1.40872,-2.603 1.50932,-4.405c0.5031,-6.6076 7.6473,-12.8147 14.7914,-12.8147c7.1441,0 14.2883,6.2071 14.7914,12.8147c0.1006,1.802 0.8049,3.8043 1.5093,4.405c1.8112,1.4016 1.6099,5.3061 -0.2012,6.8078c-0.9056,0.8009 -1.5094,2.9033 -1.5094,5.5063c0,3.7043 -0.5031,4.7054 -3.2199,6.9079c-4.2261,3.3038 -3.0186,4.5052 1.7106,1.6019c6.641,-4.1047 11.5715,-13.0149 11.5715,-20.924c0,-15.81811 -16.502,-28.63278 -31.1927,-24.22774z"/>
  <path id="svg_1" fill="#D41443" d="m19.76769,13.81422c-1.81119,0.80091 -3.32052,1.80206 -3.32052,2.40275c0,1.10126 5.43357,3.10355 8.55284,3.10355c3.11931,0 8.55281,-2.00229 8.55281,-3.10355c0,-1.20138 -6.2385,-3.90447 -8.75405,-3.90447c-1.00622,0.10011 -3.32051,0.7008 -5.03108,1.50172z" stroke="null"/>
  <path d="m14.36524,19.64104c-0.30186,0.40046 -0.60373,1.70195 -0.60373,3.00344c0,2.30264 0.10063,2.30264 11.57145,2.30264c11.4709,0 11.5715,0 11.5715,-2.30264c0,-3.4039 -0.9056,-3.80436 -4.1255,-2.20252c-3.6223,1.90218 -11.26958,1.90218 -14.89196,0c-1.60994,-0.80092 -3.11927,-1.10126 -3.52176,-0.80092z" fill="#D41443" id="svg_1"/>
  <path id="svg_1" fill="#D41443" d="m11.77683,28.19424c-1.60994,1.70194 1.10684,2.40275 8.95536,2.40275l8.4522,0l0,3.50401c0,1.90217 0.5031,3.50401 1.0062,3.50401c0.6037,0 1.0062,-1.50172 1.0062,-3.4039c0,-3.30378 0.2013,-3.50401 4.0249,-3.80435c2.2137,-0.20023 4.0249,-0.80092 4.0249,-1.30149c0,-1.10127 -26.36292,-2.0023 -27.46976,-0.90103z"/>
  <path id="svg_1" fill="#D41443" d="m13.59393,36.19503c0,5.5063 1.91182,6.60753 11.57145,6.60753c9.6597,0 11.5715,-1.10123 11.5715,-6.60753c0,-2.40275 -0.5031,-3.4039 -1.5093,-3.4039c-0.9056,0 -1.5093,0.90103 -1.5093,2.40275c0,5.60642 -7.6473,6.107 -8.7541,0.60069c-0.5031,-2.90332 -0.805,-3.00344 -5.93668,-3.00344l-5.43357,0l0,3.4039z"/>
  <path d="m19.64083,46.59604c0.60373,3.20367 10.86718,2.90332 10.86718,-0.20023c0,-1.10126 -1.3081,-1.50172 -5.63485,-1.50172c-4.72922,0 -5.53419,0.30034 -5.23233,1.70195z" fill="#D41443" id="svg_1"/>
 </g>

</svg>